<svg width="788" height="234" viewBox="0 0 788 234" fill="none" xmlns="http://www.w3.org/2000/svg">
<path d="M188 71H26.5L10 204C13.4341 215.925 18.2843 220.085 31 224H185.5C199.275 220.039 202.941 214.345 204 199.5L188 71Z" stroke="#F06E27" stroke-width="20" stroke-linejoin="round"/>
<path d="M56.5 97.5C60.4834 29.9919 71.7968 11.0071 107.5 10C143.468 10.4717 150.331 35.3791 156 97.5" stroke="#F06E27" stroke-width="20" stroke-linecap="round" stroke-linejoin="bevel"/>
<path d="M367 185.5V91.5H386L386.5 145L391.5 140C394.2 137.2 399 131.3 407.5 118.6L429 118.5L421.1 129.2C416.8 135.2 411.2 142.3 404.1 150L417.6 167.5C425 177.1 431.1 185.1 431 185.3C431 185.4 425.8 185.5 408 185.5L401.6 176.8C398.1 171.9 393.9 165.8 392.2 163C390.6 160.3 388.5 157.7 387.6 157.2C386.2 156.6 386 158 386 185.5H367Z" fill="#F8F9F9"/>
<path d="M246 185.5V93.5H301V109.5H266V132.5H295V149.5H266V185.5H246Z" fill="#F8F9F9"/>
<path d="M439.6 124C441.8 122.4 445.8 120.2 448.5 119.3C451.3 118.3 455.8 117.5 458.5 117.5C461.3 117.5 466 118.2 469 119.1C473.3 120.3 475.7 121.9 479.8 126.1C483.5 130 485.4 133 486.6 136.8C487.4 139.6 488.4 145.5 489.5 157.5H448V159.8C448 161 448.9 163.5 450 165.3C451.1 167 453.5 169.2 455.3 170.1C457.5 171.2 461.1 171.7 466.5 171.7C472.1 171.7 476.2 171.1 480 169.6C483 168.5 485.6 167.7 485.8 167.8C486 167.9 485.7 171.3 484.5 182.8L480.5 184.3C477.8 185.3 472.4 185.8 464 185.9C452.5 186 451 185.8 446 183.4C443 182 438.8 179.3 436.7 177.4C434.5 175.5 431.6 171.5 430.2 168.5C428.2 164.4 427.5 161 427.2 155C426.9 149.6 427.3 145.2 428.3 141.5C429.2 138.5 431.2 134 432.8 131.5C434.5 129 437.5 125.7 439.6 124Z" fill="#F8F9F9"/>
<path d="M307.3 122.3C308.5 121.7 311.5 120.6 314 119.9C316.7 119.1 322.8 118.7 329.5 118.8C338.9 119 341.2 119.4 345.4 121.5C348.1 122.9 351.5 125.5 352.9 127.4C354.3 129.3 356.1 133.6 356.7 136.9C357.5 140.6 358 151.5 358 185.5H341V182.5C341 180.9 340.8 179.5 340.5 179.5C340.2 179.5 339 180.5 337.7 181.6C336.5 182.8 334 184.4 332.2 185.1C330.5 185.9 326 186.5 322.3 186.5C317.8 186.5 314.1 185.8 311.5 184.6C309.3 183.6 306.5 181.7 305.3 180.4C304.1 179.1 302.4 176.3 301.6 174.3C300.7 172.2 300 168.6 300 166.3C300 163.9 300.9 160.1 302 157.8C303.1 155.4 305.7 152.2 307.8 150.7C310.2 148.9 314 147.4 318.5 146.6C322.4 145.8 328.5 145.4 332.2 145.6C336.3 145.8 339 145.6 339 145C339 144.4 338.7 142.5 338.3 140.6C337.8 138.3 336.5 136.5 334.5 135.3C332.4 134 329.5 133.5 324.5 133.5C320.6 133.5 315.5 134.1 313 134.9C310.5 135.6 307.7 136.5 306.8 136.9C305.2 137.4 305 136.7 305 130.5C305 124.3 305.2 123.4 307.3 122.3Z" fill="#F8F9F9"/>
<path d="M448.6 137.9C449.5 136.3 451.4 134.3 452.9 133.5C454.4 132.7 456.9 132 458.4 132C459.9 132 462.3 132.5 463.6 133.2C465 133.9 466.6 135.5 467.1 136.7C467.7 137.9 468.1 140.3 468.1 144.9H457.6C447.8 144.9 447.1 144.8 447.1 142.9C447.1 141.8 447.8 139.6 448.6 137.9Z" fill="#262626"/>
<path d="M318 165.5C318 162.9 318.6 161.6 320.7 160C322.9 158.4 324.9 157.9 338.1 157.9V161.4C338.1 163.4 337.5 166.3 336.6 167.9C335.8 169.6 334.2 171.4 333.1 171.9C332 172.5 329.1 172.9 326.6 172.9C323.5 172.9 321.6 172.4 320.1 170.9C319 169.8 318.1 167.5 318 165.5Z" fill="#262626"/>
<path d="M367 185.5V91.5H386L386.5 145L391.5 140C394.2 137.2 399 131.3 407.5 118.6L429 118.5L421.1 129.2C416.8 135.2 411.2 142.3 404.1 150L417.6 167.5C425 177.1 431.1 185.1 431 185.3C431 185.4 425.8 185.5 408 185.5L401.6 176.8C398.1 171.9 393.9 165.8 392.2 163C390.6 160.3 388.5 157.7 387.6 157.2C386.2 156.6 386 158 386 185.5H367Z" stroke="#262626" stroke-width="2"/>
<path d="M246 185.5V93.5H301V109.5H266V132.5H295V149.5H266V185.5H246Z" stroke="#262626" stroke-width="2"/>
<path d="M439.6 124C441.8 122.4 445.8 120.2 448.5 119.3C451.3 118.3 455.8 117.5 458.5 117.5C461.3 117.5 466 118.2 469 119.1C473.3 120.3 475.7 121.9 479.8 126.1C483.5 130 485.4 133 486.6 136.8C487.4 139.6 488.4 145.5 489.5 157.5H448V159.8C448 161 448.9 163.5 450 165.3C451.1 167 453.5 169.2 455.3 170.1C457.5 171.2 461.1 171.7 466.5 171.7C472.1 171.7 476.2 171.1 480 169.6C483 168.5 485.6 167.7 485.8 167.8C486 167.9 485.7 171.3 484.5 182.8L480.5 184.3C477.8 185.3 472.4 185.8 464 185.9C452.5 186 451 185.8 446 183.4C443 182 438.8 179.3 436.7 177.4C434.5 175.5 431.6 171.5 430.2 168.5C428.2 164.4 427.5 161 427.2 155C426.9 149.6 427.3 145.2 428.3 141.5C429.2 138.5 431.2 134 432.8 131.5C434.5 129 437.5 125.7 439.6 124Z" stroke="#262626" stroke-width="2"/>
<path d="M307.3 122.3C308.5 121.7 311.5 120.6 314 119.9C316.7 119.1 322.8 118.7 329.5 118.8C338.9 119 341.2 119.4 345.4 121.5C348.1 122.9 351.5 125.5 352.9 127.4C354.3 129.3 356.1 133.6 356.7 136.9C357.5 140.6 358 151.5 358 185.5H341V182.5C341 180.9 340.8 179.5 340.5 179.5C340.2 179.5 339 180.5 337.7 181.6C336.5 182.8 334 184.4 332.2 185.1C330.5 185.9 326 186.5 322.3 186.5C317.8 186.5 314.1 185.8 311.5 184.6C309.3 183.6 306.5 181.7 305.3 180.4C304.1 179.1 302.4 176.3 301.6 174.3C300.7 172.2 300 168.6 300 166.3C300 163.9 300.9 160.1 302 157.8C303.1 155.4 305.7 152.2 307.8 150.7C310.2 148.9 314 147.4 318.5 146.6C322.4 145.8 328.5 145.4 332.2 145.6C336.3 145.8 339 145.6 339 145C339 144.4 338.7 142.5 338.3 140.6C337.8 138.3 336.5 136.5 334.5 135.3C332.4 134 329.5 133.5 324.5 133.5C320.6 133.5 315.5 134.1 313 134.9C310.5 135.6 307.7 136.5 306.8 136.9C305.2 137.4 305 136.7 305 130.5C305 124.3 305.2 123.4 307.3 122.3Z" stroke="#262626" stroke-width="2"/>
<path d="M448.6 137.9C449.5 136.3 451.4 134.3 452.9 133.5C454.4 132.7 456.9 132 458.4 132C459.9 132 462.3 132.5 463.6 133.2C465 133.9 466.6 135.5 467.1 136.7C467.7 137.9 468.1 140.3 468.1 144.9H457.6C447.8 144.9 447.1 144.8 447.1 142.9C447.1 141.8 447.8 139.6 448.6 137.9Z" stroke="#262626" stroke-width="2"/>
<path d="M318 165.5C318 162.9 318.6 161.6 320.7 160C322.9 158.4 324.9 157.9 338.1 157.9V161.4C338.1 163.4 337.5 166.3 336.6 167.9C335.8 169.6 334.2 171.4 333.1 171.9C332 172.5 329.1 172.9 326.6 172.9C323.5 172.9 321.6 172.4 320.1 170.9C319 169.8 318.1 167.5 318 165.5Z" stroke="#262626" stroke-width="2"/>
<path d="M448.6 137.9C449.5 136.3 451.4 134.3 452.9 133.5C454.4 132.7 456.9 132 458.4 132C459.9 132 462.3 132.5 463.6 133.2C465 133.9 466.6 135.5 467.1 136.7C467.7 137.9 468.1 140.3 468.1 144.9H457.6C447.8 144.9 447.1 144.8 447.1 142.9C447.1 141.8 447.8 139.6 448.6 137.9Z" fill="white"/>
<path d="M318 165.5C318 162.9 318.6 161.6 320.7 160C322.9 158.4 324.9 157.9 338.1 157.9V161.4C338.1 163.4 337.5 166.3 336.6 167.9C335.8 169.6 334.2 171.4 333.1 171.9C332 172.5 329.1 172.9 326.6 172.9C323.5 172.9 321.6 172.4 320.1 170.9C319 169.8 318.1 167.5 318 165.5Z" fill="white"/>
<path d="M448.6 137.9C449.5 136.3 451.4 134.3 452.9 133.5C454.4 132.7 456.9 132 458.4 132C459.9 132 462.3 132.5 463.6 133.2C465 133.9 466.6 135.5 467.1 136.7C467.7 137.9 468.1 140.3 468.1 144.9H457.6C447.8 144.9 447.1 144.8 447.1 142.9C447.1 141.8 447.8 139.6 448.6 137.9Z" stroke="#262626" stroke-width="2"/>
<path d="M318 165.5C318 162.9 318.6 161.6 320.7 160C322.9 158.4 324.9 157.9 338.1 157.9V161.4C338.1 163.4 337.5 166.3 336.6 167.9C335.8 169.6 334.2 171.4 333.1 171.9C332 172.5 329.1 172.9 326.6 172.9C323.5 172.9 321.6 172.4 320.1 170.9C319 169.8 318.1 167.5 318 165.5Z" stroke="#262626" stroke-width="2"/>
<mask id="path-5-outside-1_176_78" maskUnits="userSpaceOnUse" x="493.792" y="90.5871" width="294" height="98" fill="black">
<rect fill="white" x="493.792" y="90.5871" width="294" height="98"/>
<path d="M509.5 96.7C511.1 95.9 514.3 94.6 516.5 93.9C518.7 93.2 524.1 92.6 528.5 92.6C532.9 92.5 538.3 93 540.5 93.5C542.7 94.1 546.3 95.2 552.5 97.5L552.1 106.2C552 111.1 551.7 115.1 551.6 115.2C551.6 115.4 548.6 114.3 545 112.8C539.7 110.6 536.9 110.1 529.9 110C522.6 110 520.9 110.3 519.1 112C517.7 113.3 516.9 115.2 516.9 117.5C516.967 119.833 517.733 121.733 519.2 123.2C520.5 124.4 525.8 127 531 129C536.2 131 542.9 134.1 545.8 136C549.3 138.4 552 141.2 554 144.8C556.6 149.3 557 151 557 157.5C557 163.2 556.4 166.2 554.7 170C553.4 172.8 550.4 176.7 547.9 178.8C545.5 180.9 541.3 183.3 538.5 184.3C534.8 185.5 530.4 186 522 185.9C512.5 185.9 509.3 185.5 496.5 181L496 171.7C495.6 163.7 495.7 162.5 497 162.9C497.8 163.1 501.5 164.5 505.3 165.9C509 167.3 515 168.8 518.8 169.1C522.6 169.5 527.3 169.3 529.8 168.6C532.4 167.9 534.8 166.4 536 164.8C537.2 163.2 538 161.1 538 160C537.9 158.9 536.2 156.4 534.2 154.4C532.2 152.4 528.3 150 525.5 149C522.8 148 518 146.1 515 144.8C512 143.4 507.9 141.1 506 139.6C504.1 138.1 501.3 134.4 499.7 131.4C497.5 127.1 497 124.7 497 119.5C497 115.167 497.7 111.5 499.1 108.5C500.2 106 502.3 102.7 503.8 101.2C505.3 99.6 507.9 97.6 509.5 96.7Z"/>
<path d="M568 118.5V100.5H589V118.5H606L605.5 134H589L588.8 144C588.6 149.5 588.6 156.9 588.7 160.5C588.8 166 589.2 167.3 591.2 168.8C592.9 170.1 595.2 170.6 606 170.5V184.5L601.5 185.5C599 186 594.6 186.5 591.8 186.5C588.9 186.5 584.7 186 582.5 185.4C580.3 184.8 577 183.2 575.3 181.9C573.5 180.6 571.2 178 570.3 176.3C568.9 173.6 568.5 169.5 567.8 133L560 134.5V118.5H568Z"/>
<path d="M623 122.2C624.9 121 628.5 119.5 631 118.8C633.5 118.1 638.9 117.7 643 117.8C648.4 118 652 118.8 656 120.7C659 122 663 124.5 664.8 126.1C666.7 127.7 669.4 131.5 670.8 134.5C673.2 139.4 673.5 141.1 673.4 150.5C673.4 158.8 672.9 162.1 671.2 166.5C670 169.5 667.4 174 665.3 176.4C663.2 178.8 659.3 182 656.5 183.4C652.2 185.6 650.3 186 642 186C635 186 631.2 185.5 627.5 184.1C624.8 183 620.5 180.3 618 178C615.5 175.7 612.4 171.4 611 168.4C608.8 163.7 608.5 161.7 608.5 152C608.5 142.7 608.9 140.2 610.8 136C612.1 133.3 614.5 129.5 616.3 127.7C618.1 125.9 621.1 123.4 623 122.2Z"/>
<path d="M703.3 123.4C705.6 121.2 708.9 119 710.5 118.5C712.1 118 715.3 117.7 721.3 118L721.1 137L718.3 136.8C716.8 136.7 713.6 136.8 711.3 137.1C708.4 137.4 705.8 138.5 700 143.5V185.5H680V118.5H698L699 127.5L703.3 123.4Z"/>
<path d="M736.5 123.5C738.7 122 742.5 120 745 119.1C748.1 118 751.8 117.6 757 117.8C762.9 118.1 765.6 118.8 769.8 121.1C772.8 122.7 776.4 125.6 777.8 127.5C779.2 129.4 781.3 133.3 782.3 136C783.3 138.8 784.5 144.7 785.5 157.5H764.8C748.8 157.5 744 157.8 744 158.8C744 159.4 744.9 161.8 745.8 164C747.1 166.8 748.8 168.6 751.6 169.9C754.4 171.2 757.6 171.8 763 171.7C768.1 171.7 772.3 171 776 169.6C779 168.4 781.6 167.5 781.8 167.5C781.9 167.5 781.9 169.6 781.9 172.3C781.8 174.9 781.5 178.4 781.1 180C780.6 182.7 779.9 183.2 774 184.7C770.4 185.6 764.1 186.4 760 186.5C755.2 186.5 750.1 185.8 746 184.6C741.2 183.1 738.1 181.4 734.2 177.8C731.2 175.2 727.7 170.8 726.4 168C724.9 164.9 723.7 160.3 723.4 156C722.9 151 723.2 147.1 724.4 142.5C725.3 138.9 727.5 133.8 729.3 131.1C731.1 128.4 734.3 125 736.5 123.5Z"/>
<path d="M744.4 139C745.1 137.1 747 134.7 748.6 133.7C750.8 132.3 752.9 132 756.1 132.3C759.3 132.6 761.2 133.5 762.4 135.1C763.5 136.4 764.2 139.1 764.1 144.9H753.6C745.9 144.9 743.1 144.6 743.1 143.7C743.1 143 743.7 140.9 744.4 139Z"/>
<path d="M630.7 138.3C631.9 136.7 633.9 134.9 635.2 134.2C636.6 133.5 638.9 133 640.4 133C641.9 133 644.4 133.6 645.9 134.3C647.4 135.1 649.5 137.4 650.6 139.6C652.2 142.6 652.6 145.4 652.6 152.4C652.6 159.4 652.1 162.3 650.6 165.3C649.5 167.5 647.4 169.8 645.9 170.6C644.4 171.3 641.8 171.9 640.1 171.9C638.5 171.9 635.8 171.2 634.1 170.2C632.3 169.2 630.5 166.8 629.5 164.4C628.4 161.6 628.1 157.8 628.3 150.8C628.6 142.8 629 140.6 630.7 138.3Z"/>
</mask>
<path d="M509.5 96.7C511.1 95.9 514.3 94.6 516.5 93.9C518.7 93.2 524.1 92.6 528.5 92.6C532.9 92.5 538.3 93 540.5 93.5C542.7 94.1 546.3 95.2 552.5 97.5L552.1 106.2C552 111.1 551.7 115.1 551.6 115.2C551.6 115.4 548.6 114.3 545 112.8C539.7 110.6 536.9 110.1 529.9 110C522.6 110 520.9 110.3 519.1 112C517.7 113.3 516.9 115.2 516.9 117.5C516.967 119.833 517.733 121.733 519.2 123.2C520.5 124.4 525.8 127 531 129C536.2 131 542.9 134.1 545.8 136C549.3 138.4 552 141.2 554 144.8C556.6 149.3 557 151 557 157.5C557 163.2 556.4 166.2 554.7 170C553.4 172.8 550.4 176.7 547.9 178.8C545.5 180.9 541.3 183.3 538.5 184.3C534.8 185.5 530.4 186 522 185.9C512.5 185.9 509.3 185.5 496.5 181L496 171.7C495.6 163.7 495.7 162.5 497 162.9C497.8 163.1 501.5 164.5 505.3 165.9C509 167.3 515 168.8 518.8 169.1C522.6 169.5 527.3 169.3 529.8 168.6C532.4 167.9 534.8 166.4 536 164.8C537.2 163.2 538 161.1 538 160C537.9 158.9 536.2 156.4 534.2 154.4C532.2 152.4 528.3 150 525.5 149C522.8 148 518 146.1 515 144.8C512 143.4 507.9 141.1 506 139.6C504.1 138.1 501.3 134.4 499.7 131.4C497.5 127.1 497 124.7 497 119.5C497 115.167 497.7 111.5 499.1 108.5C500.2 106 502.3 102.7 503.8 101.2C505.3 99.6 507.9 97.6 509.5 96.7Z" fill="#262626"/>
<path d="M568 118.5V100.5H589V118.5H606L605.5 134H589L588.8 144C588.6 149.5 588.6 156.9 588.7 160.5C588.8 166 589.2 167.3 591.2 168.8C592.9 170.1 595.2 170.6 606 170.5V184.5L601.5 185.5C599 186 594.6 186.5 591.8 186.5C588.9 186.5 584.7 186 582.5 185.4C580.3 184.8 577 183.2 575.3 181.9C573.5 180.6 571.2 178 570.3 176.3C568.9 173.6 568.5 169.5 567.8 133L560 134.5V118.5H568Z" fill="#262626"/>
<path d="M623 122.2C624.9 121 628.5 119.5 631 118.8C633.5 118.1 638.9 117.7 643 117.8C648.4 118 652 118.8 656 120.7C659 122 663 124.5 664.8 126.1C666.7 127.7 669.4 131.5 670.8 134.5C673.2 139.4 673.5 141.1 673.4 150.5C673.4 158.8 672.9 162.1 671.2 166.5C670 169.5 667.4 174 665.3 176.4C663.2 178.8 659.3 182 656.5 183.4C652.2 185.6 650.3 186 642 186C635 186 631.2 185.5 627.5 184.1C624.8 183 620.5 180.3 618 178C615.5 175.7 612.4 171.4 611 168.4C608.8 163.7 608.5 161.7 608.5 152C608.5 142.7 608.9 140.2 610.8 136C612.1 133.3 614.5 129.5 616.3 127.7C618.1 125.9 621.1 123.4 623 122.2Z" fill="#262626"/>
<path d="M703.3 123.4C705.6 121.2 708.9 119 710.5 118.5C712.1 118 715.3 117.7 721.3 118L721.1 137L718.3 136.8C716.8 136.7 713.6 136.8 711.3 137.1C708.4 137.4 705.8 138.5 700 143.5V185.5H680V118.5H698L699 127.5L703.3 123.4Z" fill="#262626"/>
<path d="M736.5 123.5C738.7 122 742.5 120 745 119.1C748.1 118 751.8 117.6 757 117.8C762.9 118.1 765.6 118.8 769.8 121.1C772.8 122.7 776.4 125.6 777.8 127.5C779.2 129.4 781.3 133.3 782.3 136C783.3 138.8 784.5 144.7 785.5 157.5H764.8C748.8 157.5 744 157.8 744 158.8C744 159.4 744.9 161.8 745.8 164C747.1 166.8 748.8 168.6 751.6 169.9C754.4 171.2 757.6 171.8 763 171.7C768.1 171.7 772.3 171 776 169.6C779 168.4 781.6 167.5 781.8 167.5C781.9 167.5 781.9 169.6 781.9 172.3C781.8 174.9 781.5 178.4 781.1 180C780.6 182.7 779.9 183.2 774 184.7C770.4 185.6 764.1 186.4 760 186.5C755.2 186.5 750.1 185.8 746 184.6C741.2 183.1 738.1 181.4 734.2 177.8C731.2 175.2 727.7 170.8 726.4 168C724.9 164.9 723.7 160.3 723.4 156C722.9 151 723.2 147.1 724.4 142.5C725.3 138.9 727.5 133.8 729.3 131.1C731.1 128.4 734.3 125 736.5 123.5Z" fill="#262626"/>
<path d="M744.4 139C745.1 137.1 747 134.7 748.6 133.7C750.8 132.3 752.9 132 756.1 132.3C759.3 132.6 761.2 133.5 762.4 135.1C763.5 136.4 764.2 139.1 764.1 144.9H753.6C745.9 144.9 743.1 144.6 743.1 143.7C743.1 143 743.7 140.9 744.4 139Z" fill="#F8F9F9"/>
<path d="M630.7 138.3C631.9 136.7 633.9 134.9 635.2 134.2C636.6 133.5 638.9 133 640.4 133C641.9 133 644.4 133.6 645.9 134.3C647.4 135.1 649.5 137.4 650.6 139.6C652.2 142.6 652.6 145.4 652.6 152.4C652.6 159.4 652.1 162.3 650.6 165.3C649.5 167.5 647.4 169.8 645.9 170.6C644.4 171.3 641.8 171.9 640.1 171.9C638.5 171.9 635.8 171.2 634.1 170.2C632.3 169.2 630.5 166.8 629.5 164.4C628.4 161.6 628.1 157.8 628.3 150.8C628.6 142.8 629 140.6 630.7 138.3Z" fill="#F8F9F9"/>
<path d="M509.5 96.7C511.1 95.9 514.3 94.6 516.5 93.9C518.7 93.2 524.1 92.6 528.5 92.6C532.9 92.5 538.3 93 540.5 93.5C542.7 94.1 546.3 95.2 552.5 97.5L552.1 106.2C552 111.1 551.7 115.1 551.6 115.2C551.6 115.4 548.6 114.3 545 112.8C539.7 110.6 536.9 110.1 529.9 110C522.6 110 520.9 110.3 519.1 112C517.7 113.3 516.9 115.2 516.9 117.5C516.967 119.833 517.733 121.733 519.2 123.2C520.5 124.4 525.8 127 531 129C536.2 131 542.9 134.1 545.8 136C549.3 138.4 552 141.2 554 144.8C556.6 149.3 557 151 557 157.5C557 163.2 556.4 166.2 554.7 170C553.4 172.8 550.4 176.7 547.9 178.8C545.5 180.9 541.3 183.3 538.5 184.3C534.8 185.5 530.4 186 522 185.9C512.5 185.9 509.3 185.5 496.5 181L496 171.7C495.6 163.7 495.7 162.5 497 162.9C497.8 163.1 501.5 164.5 505.3 165.9C509 167.3 515 168.8 518.8 169.1C522.6 169.5 527.3 169.3 529.8 168.6C532.4 167.9 534.8 166.4 536 164.8C537.2 163.2 538 161.1 538 160C537.9 158.9 536.2 156.4 534.2 154.4C532.2 152.4 528.3 150 525.5 149C522.8 148 518 146.1 515 144.8C512 143.4 507.9 141.1 506 139.6C504.1 138.1 501.3 134.4 499.7 131.4C497.5 127.1 497 124.7 497 119.5C497 115.167 497.7 111.5 499.1 108.5C500.2 106 502.3 102.7 503.8 101.2C505.3 99.6 507.9 97.6 509.5 96.7Z" stroke="#F8F9F9" stroke-width="4" mask="url(#path-5-outside-1_176_78)"/>
<path d="M568 118.5V100.5H589V118.5H606L605.5 134H589L588.8 144C588.6 149.5 588.6 156.9 588.7 160.5C588.8 166 589.2 167.3 591.2 168.8C592.9 170.1 595.2 170.6 606 170.5V184.5L601.5 185.5C599 186 594.6 186.5 591.8 186.5C588.9 186.5 584.7 186 582.5 185.4C580.3 184.8 577 183.2 575.3 181.9C573.5 180.6 571.2 178 570.3 176.3C568.9 173.6 568.5 169.5 567.8 133L560 134.5V118.5H568Z" stroke="#F8F9F9" stroke-width="4" mask="url(#path-5-outside-1_176_78)"/>
<path d="M623 122.2C624.9 121 628.5 119.5 631 118.8C633.5 118.1 638.9 117.7 643 117.8C648.4 118 652 118.8 656 120.7C659 122 663 124.5 664.8 126.1C666.7 127.7 669.4 131.5 670.8 134.5C673.2 139.4 673.5 141.1 673.4 150.5C673.4 158.8 672.9 162.1 671.2 166.5C670 169.5 667.4 174 665.3 176.4C663.2 178.8 659.3 182 656.5 183.4C652.2 185.6 650.3 186 642 186C635 186 631.2 185.5 627.5 184.1C624.8 183 620.5 180.3 618 178C615.5 175.7 612.4 171.4 611 168.4C608.8 163.7 608.5 161.7 608.5 152C608.5 142.7 608.9 140.2 610.8 136C612.1 133.3 614.5 129.5 616.3 127.7C618.1 125.9 621.1 123.4 623 122.2Z" stroke="#F8F9F9" stroke-width="4" mask="url(#path-5-outside-1_176_78)"/>
<path d="M703.3 123.4C705.6 121.2 708.9 119 710.5 118.5C712.1 118 715.3 117.7 721.3 118L721.1 137L718.3 136.8C716.8 136.7 713.6 136.8 711.3 137.1C708.4 137.4 705.8 138.5 700 143.5V185.5H680V118.5H698L699 127.5L703.3 123.4Z" stroke="#F8F9F9" stroke-width="4" mask="url(#path-5-outside-1_176_78)"/>
<path d="M736.5 123.5C738.7 122 742.5 120 745 119.1C748.1 118 751.8 117.6 757 117.8C762.9 118.1 765.6 118.8 769.8 121.1C772.8 122.7 776.4 125.6 777.8 127.5C779.2 129.4 781.3 133.3 782.3 136C783.3 138.8 784.5 144.7 785.5 157.5H764.8C748.8 157.5 744 157.8 744 158.8C744 159.4 744.9 161.8 745.8 164C747.1 166.8 748.8 168.6 751.6 169.9C754.4 171.2 757.6 171.8 763 171.7C768.1 171.7 772.3 171 776 169.6C779 168.4 781.6 167.5 781.8 167.5C781.9 167.5 781.9 169.6 781.9 172.3C781.8 174.9 781.5 178.4 781.1 180C780.6 182.7 779.9 183.2 774 184.7C770.4 185.6 764.1 186.4 760 186.5C755.2 186.5 750.1 185.8 746 184.6C741.2 183.1 738.1 181.4 734.2 177.8C731.2 175.2 727.7 170.8 726.4 168C724.9 164.9 723.7 160.3 723.4 156C722.9 151 723.2 147.1 724.4 142.5C725.3 138.9 727.5 133.8 729.3 131.1C731.1 128.4 734.3 125 736.5 123.5Z" stroke="#F8F9F9" stroke-width="4" mask="url(#path-5-outside-1_176_78)"/>
<path d="M744.4 139C745.1 137.1 747 134.7 748.6 133.7C750.8 132.3 752.9 132 756.1 132.3C759.3 132.6 761.2 133.5 762.4 135.1C763.5 136.4 764.2 139.1 764.1 144.9H753.6C745.9 144.9 743.1 144.6 743.1 143.7C743.1 143 743.7 140.9 744.4 139Z" stroke="#F8F9F9" stroke-width="4" mask="url(#path-5-outside-1_176_78)"/>
<path d="M630.7 138.3C631.9 136.7 633.9 134.9 635.2 134.2C636.6 133.5 638.9 133 640.4 133C641.9 133 644.4 133.6 645.9 134.3C647.4 135.1 649.5 137.4 650.6 139.6C652.2 142.6 652.6 145.4 652.6 152.4C652.6 159.4 652.1 162.3 650.6 165.3C649.5 167.5 647.4 169.8 645.9 170.6C644.4 171.3 641.8 171.9 640.1 171.9C638.5 171.9 635.8 171.2 634.1 170.2C632.3 169.2 630.5 166.8 629.5 164.4C628.4 161.6 628.1 157.8 628.3 150.8C628.6 142.8 629 140.6 630.7 138.3Z" stroke="#F8F9F9" stroke-width="4" mask="url(#path-5-outside-1_176_78)"/>
<path d="M99 193H79V101H134V117H99V140H128V157H99V193Z" fill="#F06E27" stroke="#F06E27" stroke-width="8"/>
<path d="M640.4 131.806C641.962 131.806 644.383 132.369 646.009 133.06L646.323 133.199L646.347 133.211L646.37 133.224C647.267 133.702 648.258 134.572 649.146 135.563C650.037 136.56 650.886 137.749 651.482 138.936L651.79 139.54C653.255 142.564 653.6 145.63 653.6 152.206C653.6 159.242 653.102 162.337 651.494 165.553C650.897 166.746 650.043 167.944 649.146 168.947C648.258 169.939 647.267 170.81 646.37 171.288L646.347 171.301L646.323 171.312C644.696 172.071 641.951 172.706 640.1 172.706C639.179 172.706 638.01 172.508 636.871 172.194C635.737 171.881 634.559 171.431 633.614 170.879C631.544 169.728 629.624 167.103 628.577 164.59L628.573 164.581L628.569 164.571C627.386 161.559 627.101 157.569 627.301 150.577V150.568C627.599 142.624 627.983 140.1 629.896 137.512L629.9 137.506C631.164 135.821 633.268 133.91 634.726 133.125L634.753 133.111C636.303 132.337 638.758 131.806 640.4 131.806ZM750.07 132.657C752.521 131.1 754.869 130.799 758.193 131.11C761.509 131.421 763.725 132.374 765.163 134.26L765.293 134.42C765.928 135.241 766.384 136.38 766.682 137.93C767 139.587 767.15 141.788 767.1 144.723L767.083 145.706H755.6C751.753 145.706 749.076 145.631 747.351 145.437C746.5 145.341 745.797 145.208 745.283 145C744.82 144.813 744.1 144.385 744.1 143.506C744.1 142.996 744.293 142.165 744.524 141.337C744.77 140.458 745.104 139.432 745.462 138.46C745.859 137.382 746.573 136.215 747.379 135.197C748.082 134.31 748.902 133.477 749.72 132.893L750.07 132.657Z" fill="white" stroke="#262626" stroke-width="2"/>
</svg>
